<svg width="360" height="418" viewBox="0 0 360 418" fill="none" xmlns="http://www.w3.org/2000/svg">
<g clip-path="url(#clip0_140_13960)">
<rect width="360" height="418" fill="#E5B175"/>
<path opacity="0.7" d="M204.381 96.135C216.783 96.5989 228.639 100.627 239.494 111.033C251.297 122.323 260.841 137.051 276.382 143.849C290.883 150.182 304.066 151.773 315.801 163.504C322.732 170.121 328.235 178.015 331.985 186.724C342.81 212.448 333.16 237.995 330.158 245.691C319.386 273.292 303.581 275.045 304.233 294.605C304.559 304.532 308.88 311.543 306.06 325.461C304.771 331.824 303.581 338.165 298.858 343.519C288.556 355.184 269.119 354.448 230.246 352.886C204.654 351.863 205.836 348.298 181.912 346.73C133.002 343.526 119.478 357.843 81.1356 348.357C61.5246 343.467 52.7235 336.692 48.8725 333.319C38.8113 324.578 31.9627 312.885 29.3677 300.018C26.5932 285.429 31.4068 273.808 35.5307 263.306C42.4139 245.786 47.9401 245.963 51.8517 234.224C57.9162 216.211 43.9755 199.921 44.1877 182.239C44.4152 163.777 55.0583 144.224 68.1955 131.373C80.2588 119.674 95.6842 111.795 112.443 108.772C129.879 105.642 146.17 108.367 163.597 103.219C177.568 99.1175 191.274 95.6416 204.381 96.135Z" fill="white" fill-opacity="0.3"/>
<path d="M153.5 146.465C153.5 146.465 137.929 146.207 131.145 135.351C124.361 124.495 133.561 109.323 134.558 94.6972C135.554 80.0712 145.539 61.9638 179.926 64.1371C214.312 66.3104 225.707 73.5513 219.877 111.929C214.047 150.307 215.277 154.19 189.54 145.394C163.803 136.598 153.5 146.465 153.5 146.465Z" fill="#4D0C02"/>
<mask id="mask0_140_13960" style="mask-type:luminance" maskUnits="userSpaceOnUse" x="-36" y="61" width="432" height="361">
<path d="M210.072 61.6445C227.414 62.2934 243.992 67.9275 259.171 82.4814C275.676 98.2713 289.021 118.871 310.751 128.378C331.029 137.236 349.462 139.461 365.871 155.869C375.564 165.123 383.258 176.164 388.502 188.345C389.562 190.765 405.791 231.203 385.947 270.817C367.811 307.021 336.763 308.103 336.816 332.473C336.816 350.92 354.667 358.583 352.25 382.386C351.847 386.342 350.66 398.032 342.18 407.642C327.775 423.957 300.596 422.927 246.239 420.744C210.454 419.312 212.107 414.327 178.654 412.133C110.263 407.652 91.3522 427.676 37.7374 414.409C10.3152 407.57 -1.9914 398.094 -7.3762 393.377C-21.4449 381.151 -31.0213 364.797 -34.65 346.8C-38.5296 326.396 -31.7986 310.142 -26.0322 295.454C-16.4074 270.951 -8.68 271.198 -3.2104 254.78C5.2696 229.586 -14.2238 206.802 -13.927 182.072C-13.609 156.25 1.2734 128.903 19.6432 110.93C36.5114 94.5669 58.0808 83.547 81.5154 79.3193C105.895 74.9418 128.675 78.7528 153.044 71.5531C172.58 65.816 191.745 60.9544 210.072 61.6445Z" fill="white"/>
</mask>
<g mask="url(#mask0_140_13960)">
<path d="M182.608 166.2C179.899 166.362 177.202 166.675 174.53 167.137C149.09 171.442 130.169 186.594 117.937 199.469C117.937 199.469 113.782 226.753 113.167 279.592C112.52 334.636 104.422 359.871 109.319 421.413C110.877 440.983 112.234 445.237 114.619 449.429C138.522 491.783 238.427 498.189 269.284 454.693C271.14 451.943 272.672 448.999 273.852 445.917C286.837 416.14 275.972 390.534 266.21 344.246C263.03 329.208 260.655 312.388 255.875 278.748C250.819 243.12 248.211 213.806 246.801 194.288C233 181.506 209.85 164.686 182.608 166.2Z" fill="#FCFBF3"/>
<path d="M153.966 184.699C151.041 191.538 146.546 197.574 144.373 204.722C143.377 208.008 139.805 215.331 141.066 218.792C142.699 223.241 157.242 219.77 155.705 227.33C155.058 230.523 152.652 234.18 151.316 237.157C149.196 241.936 150.733 241.822 154.284 245.345C160.093 251.092 164.164 258.673 168.393 265.646C170.513 269.159 172.94 272.856 174.901 276.503C177.371 281.168 177.848 285.989 179.767 290.923" stroke="#FFCDBE" stroke-miterlimit="10"/>
<path d="M203.574 206.72C201.701 209.801 200.082 213.021 198.73 216.35C196.949 220.707 196.706 222.633 194.543 230.853C191.194 243.625 190.664 243.213 188.862 251.082C188.469 252.792 187.526 256.737 185.957 261.949C185.576 263.226 185.13 264.606 184.547 266.244C183.02 270.126 181.832 274.126 180.996 278.202C180.541 280.561 180.339 282.415 180.095 284.567C179.491 289.872 179.364 294.188 179.3 297.391C178.996 315.679 179.75 333.97 181.558 352.177C184.314 377.171 187.074 402.166 189.837 427.161" stroke="#FFCDBE" stroke-miterlimit="10"/>
<path d="M210.051 184.699C212.924 191.445 217.323 197.399 219.453 204.454C220.428 207.699 223.937 214.909 222.697 218.338C221.107 222.726 206.85 219.296 208.355 226.754C208.991 229.905 211.344 233.521 212.659 236.446C214.779 241.163 213.22 241.05 209.744 244.521C204.051 250.196 200.055 257.674 195.964 264.555C192.201 270.817 190.271 273.917 189.604 275.266C183.261 287.738 179.878 301.433 179.703 315.344" stroke="#FFCDBE" stroke-miterlimit="10"/>
</g>
<path d="M203.977 182.278C201.168 203.689 196.775 224.876 190.833 245.675C187.6 257.005 184.081 267.583 180.424 277.46C179.004 272.434 177.933 268.448 177.329 266.213C175.792 260.496 170.396 240.246 160.369 194.679C159.468 190.611 158.768 187.387 158.429 185.821C173.361 182.47 188.719 181.276 204.009 182.278H203.977Z" fill="#4D0C02"/>
<path d="M242.381 341.588C243.642 342.258 244.289 343.906 245.349 344.802C246.907 346.11 248.37 347.439 249.822 348.86C250.469 349.499 251.084 350.147 251.73 350.776C252.377 351.404 253.596 351.857 253.5 352.29C253.48 352.363 253.435 352.429 253.373 352.475C252.659 353.361 252.093 354.352 251.698 355.411C250.977 356.838 250.114 358.194 249.123 359.459C248.063 358.738 247.268 356.369 246.78 355.225C246.292 354.082 245.667 352.568 245.137 351.25C244.267 349.278 243.558 347.242 243.017 345.162C242.679 343.995 242.466 342.798 242.381 341.588Z" fill="#FFCDBE"/>
<path d="M115.34 200.653C108.73 210.324 103.09 220.589 98.4966 231.306C90.0166 251.061 80.4766 283.754 75.0706 294.795C71.4348 302.252 69.919 304.797 69.919 304.797C68.0746 307.887 67.1312 309.04 66.2938 311.265C65.0893 314.566 64.7754 318.112 65.3822 321.565C69.548 342.34 72.8976 358.346 74.4558 368.193C75.5267 376.048 78.3327 383.584 82.6814 390.287C83.1584 390.997 83.6248 391.615 84.1018 392.213C84.8756 393.171 96.2494 407.003 105.122 403.996C112.785 401.4 114.216 387.742 117.312 369.759C124.286 329.177 129.035 342.412 134.272 297.72C137.112 273.66 140.059 247.302 138.766 222.912C137.96 207.75 134.134 185.42 115.34 200.653Z" fill="#FCFBF3"/>
<path d="M96.0798 340.62C95.2734 341.075 94.5558 341.664 93.9598 342.361C89.8152 347.274 92.5818 355.277 92.8362 360.901C93.2496 369.934 92.8362 382.139 98.433 389.885C99.6944 391.615 100.723 392.501 101.761 392.408C104.38 392.161 105.609 385.796 106.786 380.46C112.16 356.07 116.294 353.629 113.22 347.336C110.146 341.042 102.175 335.851 98.38 337.551C97.8015 337.883 97.2991 338.326 96.9035 338.854C96.5079 339.382 96.2276 339.983 96.0798 340.62Z" fill="#FFCDBE"/>
<path d="M41.882 266.46L78.3248 254.1C78.9603 253.877 79.6521 253.857 80.3001 254.043C80.9481 254.228 81.5185 254.609 81.9288 255.13L166.22 367.287C166.505 367.681 166.687 368.136 166.75 368.614C166.813 369.092 166.756 369.577 166.582 370.029C166.409 370.48 166.125 370.883 165.756 371.204C165.386 371.525 164.941 371.754 164.46 371.87L127.477 381.738C126.864 381.907 126.213 381.893 125.608 381.698C125.003 381.504 124.473 381.137 124.085 380.646C96.1646 344.074 68.2513 307.505 40.345 270.94C40.0753 270.564 39.8997 270.132 39.8323 269.678C39.7649 269.224 39.8076 268.761 39.9568 268.326C40.1061 267.89 40.3579 267.495 40.6921 267.171C41.0263 266.847 41.4338 266.604 41.882 266.46Z" fill="#005442"/>
<path d="M79.3 257.54L161.673 367.699" stroke="#13053D" stroke-miterlimit="10"/>
<path d="M55.7044 269.777C56.4358 270.807 57.1778 271.837 57.9092 272.867C58.0198 273.012 58.1743 273.119 58.3511 273.175C58.5279 273.23 58.718 273.23 58.895 273.176L73.8728 268.159C73.9968 268.117 74.1091 268.047 74.2011 267.956C74.293 267.865 74.3621 267.754 74.4031 267.633C74.4441 267.511 74.4558 267.382 74.4374 267.256C74.4189 267.129 74.3708 267.008 74.2968 266.903L72.1768 263.936C72.0704 263.789 71.9184 263.679 71.743 263.621C71.5676 263.564 71.3779 263.563 71.2016 263.617C68.7784 263.909 66.3872 264.412 64.0572 265.121C61.2904 265.972 58.6281 267.115 56.1178 268.53C55.7892 269.045 55.5454 269.55 55.7044 269.777Z" fill="#13053D"/>
<path d="M95.6876 350.632C94.4569 348.395 93.8159 345.896 93.822 343.36C93.9827 341.833 94.234 340.316 94.5746 338.817C95.5604 333.667 95.6876 333.667 95.8784 332.225C96.2812 329.135 95.7724 328.27 95.6452 323.862C95.5464 321.059 95.6598 318.254 95.9844 315.467C96.8324 309.287 98.433 308.68 100.818 300.203C102.578 293.961 102.737 290.675 103.998 290.572C105.259 290.469 106.553 293.57 107.104 295.939C107.994 299.698 106.68 301.552 106.288 306.403C105.906 311.038 106.468 317.208 108.238 317.558C109.203 317.744 109.701 316.034 113.474 311.852C116.538 308.443 118.997 306.651 121.954 305.672C122.871 305.32 123.884 305.28 124.827 305.559C125.839 305.983 126.682 306.713 127.23 307.642C127.779 308.57 128.003 309.646 127.869 310.709C127.623 311.372 127.477 312.065 127.435 312.769C127.421 313.26 127.471 313.752 127.583 314.231C128.517 313.491 129.696 313.103 130.901 313.14C133.636 313.335 135.681 316.312 135.766 318.805C135.851 321.297 134.102 323.326 134.42 323.512C134.738 323.697 135.353 322.265 136.54 322.193C137.727 322.121 138.66 323.543 139.031 324.006C139.689 324.948 140.013 326.073 139.953 327.209C139.741 329.764 137.293 331.474 137.505 331.7C137.717 331.927 139.349 329.815 141.109 330.032C142.868 330.248 144.585 332.874 144.289 335.109C144.108 336.356 143.419 336.768 140.928 339.281C136.688 343.586 135.883 345.193 132.629 347.521C131.728 348.149 130.774 348.747 130.668 348.808C129.107 349.745 127.497 350.601 125.845 351.373C121.403 353.433 116.199 355.792 112.52 359.871C109.595 363.115 109.764 365.021 108.704 365.793C108.514 365.902 108.311 365.988 108.1 366.051C105.673 366.7 99.6732 358.964 95.6876 350.632Z" fill="#FF7B61"/>
<path d="M240.335 188.005C249.183 193.613 257.649 199.772 265.68 206.442C269.484 209.6 272.928 213.146 275.951 217.02C277.453 219.001 278.837 221.065 280.096 223.2C286.456 233.83 298.031 248.136 312.246 269.828C329.789 296.608 331.018 303.581 330.817 309.627C330.605 316.312 328.697 320.792 324.807 329.496C315.648 350.158 305.356 358.336 286.753 384.426C281.601 391.636 277.626 397.682 275.093 401.575C263.499 392.376 253.959 380.975 247.056 368.069C253.041 357.206 259.012 346.1 264.97 334.749C269.485 326.138 273.881 317.599 278.156 309.133C275.485 306.249 272.792 303.358 270.079 300.46C264.821 294.857 259.578 289.364 254.348 283.98C253.189 276.345 252.041 268.702 250.903 261.052C247.285 236.607 243.763 212.258 240.335 188.005Z" fill="#FCFBF3"/>
<path d="M254.2 281.034C254.433 281.282 254.772 281.673 255.165 282.157C256.555 283.929 257.663 285.894 258.451 287.987C259.193 289.748 260.051 290.686 264.122 294.981C267.98 299.039 272.517 303.797 277.743 309.164C279.258 308.278 280.562 306.486 282.322 305.96C283.679 305.548 285.608 306.115 286.975 306.084C287.788 306.053 288.596 305.957 289.392 305.796C291.317 305.385 293.126 304.569 294.692 303.406" stroke="#FFCDBE" stroke-miterlimit="10"/>
<path d="M240.558 336.17C245.37 358.501 259.691 381.614 278.591 397.332" stroke="#FFCDBE" stroke-miterlimit="10"/>
<path d="M277.584 309.153C277.266 311.286 275.559 313.624 274.563 315.56C268.612 327.554 261.987 339.22 254.719 350.508C252.571 353.524 250.651 356.688 248.974 359.974" stroke="#FFCDBE" stroke-miterlimit="10"/>
<path d="M298.402 300.295C298.285 292.467 302.303 284.907 303.554 277.275C304.041 274.298 303.214 271.713 301.985 268.953C299.059 262.361 298.201 255.861 296.112 249.135" stroke="#FFCDBE" stroke-miterlimit="10"/>
<path d="M273.99 243.985C272.876 234.003 269.045 224.489 262.892 216.423" stroke="#FFCDBE" stroke-miterlimit="10"/>
<path d="M266.348 207.75C270.185 213.271 274.033 218.246 276.683 224.518C281.13 235.177 283.318 246.597 283.117 258.096" stroke="#FFCDBE" stroke-miterlimit="10"/>
<path d="M139.94 245.575C142.616 241.357 141.266 235.83 136.925 233.23C132.585 230.63 126.897 231.942 124.221 236.16C121.546 240.377 122.895 245.904 127.236 248.504C131.577 251.104 137.265 249.792 139.94 245.575Z" fill="#13053D"/>
<path d="M133.424 223.396L132.618 235.498" stroke="#FFB464" stroke-miterlimit="10"/>
<path d="M132.215 244.954C134.967 244.954 137.197 242.786 137.197 240.113C137.197 237.439 134.967 235.272 132.215 235.272C129.464 235.272 127.233 237.439 127.233 240.113C127.233 242.786 129.464 244.954 132.215 244.954Z" stroke="#FFB464" stroke-miterlimit="10"/>
<path d="M136.413 223.849C137.87 210.826 140.807 198 145.168 185.605C146.97 180.455 148.91 174.975 152.747 170.917C156.987 166.488 163.061 164.923 168.828 163.388C175.374 161.511 182.083 160.222 188.872 159.536C194.822 158.905 200.826 160.097 206.044 162.945C216.464 168.816 221.944 179.796 224.933 190.755C228.824 204.99 228.94 219.822 229.078 234.437C229.078 237.754 234.378 237.764 234.378 234.437C234.251 220.481 234.071 206.37 230.88 192.681C227.997 180.321 222.485 168.085 211.683 160.421C206.521 156.732 200.351 154.607 193.95 154.314C186.646 153.994 179.173 155.642 172.114 157.29C168.711 158.083 165.319 158.979 161.991 160.02C158.76 160.93 155.685 162.297 152.864 164.078C147.564 167.652 144.479 173.049 142.137 178.735C136.222 193.083 132.819 208.605 131.113 223.89C131.113 224.573 131.392 225.228 131.889 225.711C132.386 226.194 133.06 226.465 133.763 226.465C134.466 226.465 135.14 226.194 135.637 225.711C136.134 225.228 136.413 224.573 136.413 223.89V223.849Z" fill="#13053D"/>
<path d="M218.16 285.937C215.936 285.143 213.954 283.818 212.394 282.085C211.145 280.6 210.199 278.898 209.606 277.069C208.323 273.402 208.631 270.24 208.631 267.603C208.631 261.835 208.631 256.706 211.005 251.123C212.288 248.085 214.81 242.162 221.128 238.763C224.475 237.008 228.252 236.176 232.051 236.357C235.849 236.539 239.524 237.727 242.678 239.793C245.969 242.115 248.578 245.233 250.246 248.837C253.871 255.645 253.797 262.144 253.744 266.923C253.684 270.601 253.125 274.255 252.08 277.79C251.073 281.21 250.246 282.466 249.578 283.27C247.664 285.429 245.045 286.883 242.158 287.39" stroke="#13053D" stroke-miterlimit="10"/>
<path d="M227.7 233.83C225.742 234.194 223.84 234.8 222.04 235.632C221.054 236.096 220.312 236.549 220.153 237.301C220.119 237.618 220.158 237.938 220.266 238.239C220.374 238.539 220.549 238.813 220.778 239.041C221.335 239.557 222.076 239.841 222.845 239.834C224.7 239.958 224.965 239.041 227.435 238.526C229.798 237.993 232.243 237.895 234.643 238.238C235.889 238.427 237.104 238.773 238.258 239.268C239.318 239.742 240.473 240.772 241.745 240.298C242.257 240.055 242.68 239.665 242.955 239.18C243.23 238.695 243.344 238.139 243.282 237.589C243.165 236.95 242.667 236.384 241.162 235.581C237.009 233.529 232.262 232.912 227.7 233.83Z" fill="#13053D"/>
<path d="M225.071 286.03C225.071 286.875 224.813 287.702 224.33 288.405C223.846 289.108 223.159 289.656 222.356 289.979C221.552 290.303 220.667 290.387 219.814 290.222C218.961 290.057 218.177 289.65 217.562 289.052C216.946 288.455 216.527 287.693 216.358 286.864C216.188 286.035 216.275 285.175 216.608 284.394C216.941 283.613 217.505 282.946 218.228 282.476C218.952 282.006 219.802 281.755 220.672 281.755C221.839 281.755 222.958 282.206 223.783 283.007C224.608 283.809 225.071 284.896 225.071 286.03Z" fill="#13053D"/>
<path d="M244.416 286.37C244.416 287.216 244.158 288.043 243.674 288.746C243.19 289.449 242.503 289.997 241.698 290.32C240.894 290.643 240.009 290.727 239.155 290.561C238.301 290.396 237.518 289.988 236.903 289.389C236.288 288.79 235.87 288.027 235.701 287.197C235.533 286.368 235.622 285.508 235.956 284.727C236.291 283.946 236.856 283.279 237.581 282.811C238.306 282.342 239.157 282.093 240.028 282.095C240.605 282.095 241.176 282.206 241.71 282.421C242.243 282.636 242.727 282.951 243.135 283.348C243.542 283.745 243.865 284.216 244.085 284.735C244.305 285.253 244.418 285.809 244.416 286.37Z" fill="#13053D"/>
<path d="M221.001 237.538C221.872 236.749 222.932 236.186 224.085 235.9C226.125 235.182 228.276 234.806 230.445 234.787" stroke="#FFB464" stroke-miterlimit="10"/>
<path d="M237.685 235.756C238.819 236.147 239.922 236.672 241.014 237.156" stroke="#FFB464" stroke-miterlimit="10"/>
<path d="M199.801 187.902C178.389 203.805 164.312 186.872 164.312 186.872L163.909 169.444L163.538 153.16L186.996 161.894L198.974 151.594L199.303 166.148L199.801 187.902Z" fill="#FF7B61"/>
<path d="M199.303 166.128C194.321 171.144 187.007 174.975 181.198 175.253C174.382 175.583 167.524 173.193 163.909 169.413L163.538 153.16L186.996 161.894L198.974 151.594L199.303 166.128Z" fill="#FC6551"/>
<path d="M145.243 138.163C140.854 128.224 140.801 119.716 140.557 115.194C140.123 107.006 140.239 98.4773 145.762 90.3815C149.779 84.5002 154.952 81.5441 161.429 77.8361C167.418 74.4062 171.933 71.8312 178.156 71.8827C182.989 71.8827 186.413 73.5719 193.059 76.8782C202.451 81.5235 207.136 83.8616 210.835 88.785C215.51 94.965 215.976 101.454 216.305 113.196C216.733 120.26 215.926 127.344 213.92 134.146C211.326 142.408 206.798 149.974 200.691 156.25C194.331 163.182 188.703 168.445 181.166 168.878C174.435 169.259 169.506 165.417 162.637 160.143C155.082 154.304 149.11 146.758 145.243 138.163Z" fill="#FF7B61"/>
<path d="M169.315 115.184C168.45 113.468 167.11 112.02 165.446 111.002C163.437 109.845 161.106 109.327 158.779 109.519C157.858 109.553 156.947 109.702 156.065 109.962C155.306 110.187 154.574 110.491 153.882 110.868C152.758 111.466 150.288 111.682 144.278 109.9C144.87 111.221 145.846 112.345 147.087 113.134C148.229 113.814 149.532 114.197 150.871 114.247C154.486 114.504 156.383 112.938 158.864 112.372C161.132 111.857 164.513 112.042 169.315 115.184Z" fill="#13053D"/>
<path d="M164.164 114.741C164.348 115.532 164.288 116.359 163.991 117.117C163.693 117.876 163.172 118.532 162.493 119.004C161.813 119.475 161.005 119.741 160.171 119.769C159.336 119.796 158.512 119.583 157.801 119.157C157.091 118.73 156.525 118.11 156.176 117.373C155.827 116.635 155.71 115.815 155.839 115.013C155.969 114.211 156.339 113.464 156.903 112.866C157.468 112.268 158.201 111.845 159.012 111.651C159.559 111.52 160.128 111.496 160.685 111.581C161.242 111.665 161.776 111.857 162.255 112.145C162.735 112.433 163.151 112.811 163.479 113.256C163.806 113.702 164.039 114.207 164.164 114.741Z" fill="#13053D"/>
<path d="M188.809 115.184C189.674 113.468 191.014 112.02 192.678 111.002C194.687 109.846 197.018 109.328 199.345 109.519C200.265 109.553 201.177 109.702 202.059 109.962C202.818 110.187 203.55 110.491 204.242 110.868C205.366 111.466 207.836 111.682 213.846 109.9C213.263 111.227 212.285 112.353 211.037 113.134C209.899 113.815 208.599 114.198 207.263 114.247C203.638 114.504 201.751 112.938 199.26 112.372C196.96 111.857 193.621 112.042 188.809 115.184Z" fill="#13053D"/>
<path d="M202.1 116.785C202.701 114.521 201.369 112.23 199.124 111.667C196.879 111.104 194.572 112.483 193.971 114.747C193.37 117.011 194.702 119.302 196.947 119.865C199.191 120.428 201.498 119.049 202.1 116.785Z" fill="#13053D"/>
<path d="M166.835 146.568C167.174 146.506 167.725 146.393 168.404 146.228C172.283 145.301 174.234 144.868 175.05 144.652C175.398 144.578 175.754 144.544 176.11 144.549C177.281 144.503 178.453 144.628 179.587 144.92C180.473 144.584 181.413 144.402 182.364 144.384C183.127 144.362 183.888 144.456 184.622 144.662C187.24 145.291 188.862 145.744 190.6 146.135L192.222 146.465C191.406 147.989 188.597 152.727 183.191 153.994C182.221 154.212 181.228 154.312 180.233 154.293C173.47 154.19 168.276 148.309 166.835 146.568Z" fill="#962313"/>
<path d="M170.545 130.5C170.497 130.71 170.531 130.93 170.64 131.118C171.181 132.004 173.248 130.819 175.368 131.736C176.301 132.138 176.364 132.57 177.657 133.044C178.308 133.302 179.013 133.408 179.714 133.353C180.122 133.304 180.522 133.2 180.901 133.044C182.396 132.457 182.576 131.87 183.434 131.499C185.311 130.716 187.166 132.364 188.035 131.499C188.257 131.244 188.367 130.915 188.342 130.582" stroke="#4D0C02" stroke-miterlimit="10"/>
<path d="M186.996 101.804C187.344 100.778 187.957 99.8561 188.777 99.1261C189.932 98.0961 191.013 97.9931 194.342 97.3854C200.108 96.3554 200.437 96.0567 202.271 96.1803C203.796 96.2531 205.298 96.577 206.712 97.1382C209.137 98.1641 211.187 99.8763 212.595 102.051C207.677 99.775 204.115 99.7956 201.677 100.259C194.034 101.722 191.363 102.546 191.363 102.546C190.759 102.721 188.989 103.287 187.685 102.453C187.418 102.277 187.185 102.058 186.996 101.804Z" fill="#4D0C02"/>
<path d="M169.4 101.804C169.057 100.778 168.447 99.8561 167.63 99.1261C166.464 98.0961 165.383 97.9931 162.054 97.3854C156.298 96.3554 155.959 96.0567 154.125 96.1803C152.6 96.2541 151.098 96.5779 149.684 97.1382C147.261 98.1668 145.212 99.8784 143.801 102.051C148.719 99.775 152.281 99.7956 154.719 100.259C162.372 101.722 165.043 102.546 165.043 102.546C165.637 102.721 167.407 103.287 168.722 102.453C168.986 102.278 169.215 102.058 169.4 101.804Z" fill="#4D0C02"/>
<path d="M162.277 261.918H132.576V276.482H162.277V261.918Z" fill="#13053D"/>
<path d="M159.256 264.256H135.416V274.257H159.256V264.256Z" stroke="#FFCDBE" stroke-miterlimit="10"/>
<path d="M138.13 269.056H156.171" stroke="#FFCDBE" stroke-miterlimit="10"/>
<path d="M173.407 74.2929C173.407 74.2929 141.745 106.81 147.14 161.544C147.14 161.544 117.757 76.6722 173.947 69.5961C173.947 69.5961 223.969 67.9687 216.347 122.662C216.379 122.662 196.674 82.6565 173.407 74.2929Z" fill="#4D0C02"/>
<path d="M201.37 71.4913C201.37 71.4913 215.362 60.6351 203.182 51.3548C191.003 42.0745 156.108 43.2178 151.931 55.4748C147.755 67.7318 155.62 74.6534 155.62 74.6534C155.62 74.6534 183.445 66.5267 201.37 71.4913Z" fill="#4D0C02"/>
</g>
<defs>
<clipPath id="clip0_140_13960">
<rect width="360" height="418" fill="white"/>
</clipPath>
</defs>
</svg>
