<svg width="19" height="18" viewBox="0 0 19 18" fill="none" xmlns="http://www.w3.org/2000/svg">
<path d="M2.1375 18C1.44892 18 0.959495 17.675 0.669224 17.025C0.378937 16.375 0.472787 15.7833 0.950775 15.25L7.08221 8.25V1.5H5.79659C5.58644 1.5 5.41028 1.42771 5.26812 1.28313C5.12596 1.13853 5.05488 0.959358 5.05488 0.745625C5.05488 0.531875 5.12596 0.354167 5.26812 0.2125C5.41028 0.0708333 5.58644 0 5.79659 0H13.7081C13.9183 0 14.0944 0.0722917 14.2366 0.216875C14.3787 0.361475 14.4498 0.540642 14.4498 0.754375C14.4498 0.968125 14.3787 1.14583 14.2366 1.2875C14.0944 1.42917 13.9183 1.5 13.7081 1.5H12.4225V8.25L18.5539 15.25C19.0319 15.7833 19.1258 16.375 18.8355 17.025C18.5452 17.675 18.0558 18 17.3672 18H2.1375ZM1.84082 16.5H17.6639L10.9391 8.8V1.5H8.56562V8.8L1.84082 16.5Z" fill="black"/>
</svg>
