<svg width="143" height="285" viewBox="0 0 143 285" fill="none" xmlns="http://www.w3.org/2000/svg">
<mask id="mask0_73_27983" style="mask-type:alpha" maskUnits="userSpaceOnUse" x="4" y="0" width="135" height="285">
<rect x="4" width="135" height="285" rx="15" fill="#E6B366"/>
</mask>
<g mask="url(#mask0_73_27983)">
<path d="M59.3295 159.324C26.7545 195.474 -55.9781 221.057 -95.2986 229.672C-105.456 236.486 -123.423 243.039 -114.036 214.735C-107.102 193.832 -16.4452 176.485 59.3295 159.324C61.2193 157.227 62.9403 155.095 64.4742 152.928C92.4485 113.407 135.548 89.7967 153.601 82.9317C161.037 85.7792 173.246 97.7432 162.595 122.819C157.148 135.644 111.808 147.44 59.3295 159.324Z" fill="#EDBF89"/>
</g>
<g clip-path="url(#clip0_73_27983)">
<path d="M57.108 160.342C24.4173 195.978 -58.3431 221.438 -97.6626 230.057C-107.838 236.791 -125.816 243.3 -116.323 215.462C-109.312 194.904 -18.667 177.502 57.108 160.342C59.0045 158.275 60.7325 156.173 62.2738 154.039C90.3815 115.11 133.537 91.747 151.601 84.9317C159.019 87.6986 171.168 99.4005 160.427 124.072C154.933 136.691 109.586 148.458 57.108 160.342Z" fill="#CF7356" fill-opacity="0.7"/>
</g>
<defs>
<clipPath id="clip0_73_27983">
<rect width="83" height="141" fill="white" transform="translate(56 83)"/>
</clipPath>
</defs>
</svg>
